<svg width="900" height="256" xmlns="http://www.w3.org/2000/svg" version="1.1" >
 <g>
  <title>Layer 1</title>
  <g id="svg_8">
   <rect id="svg_1" fill="#ffcac6" height="256" width="900"/>
   <path id="svg_2" fill="#fa7268" d="m0,239l21.5,-6.5c21.5,-6.5 64.5,-19.5 107.3,-23.7c42.9,-4.1 85.5,0.5 128.4,-6.8c42.8,-7.3 85.8,-26.7 128.6,-28.5c42.9,-1.8 85.5,13.8 128.4,23c42.8,9.2 85.8,11.8 128.6,5.8c42.9,-6 85.5,-20.6 128.4,-16.3c42.8,4.3 85.8,27.7 107.3,39.3l21.5,11.7l0,-237l-21.5,0c-21.5,0 -64.5,0 -107.3,0c-42.9,0 -85.5,0 -128.4,0c-42.8,0 -85.8,0 -128.6,0c-42.9,0 -85.5,0 -128.4,0c-42.8,0 -85.8,0 -128.6,0c-42.9,0 -85.5,0 -128.4,0c-42.8,0 -85.8,0 -107.3,0l-21.5,0l0,239z"/>
   <path id="svg_3" fill="#ef5f67" d="m0,124l21.5,0c21.5,0 64.5,0 107.3,2.7c42.9,2.6 85.5,8 128.4,7.8c42.8,-0.2 85.8,-5.8 128.6,-9c42.9,-3.2 85.5,-3.8 128.4,4.5c42.8,8.3 85.8,25.7 128.6,26.8c42.9,1.2 85.5,-13.8 128.4,-19.5c42.8,-5.6 85.8,-2 107.3,-0.1l21.5,1.8l0,-139l-21.5,0c-21.5,0 -64.5,0 -107.3,0c-42.9,0 -85.5,0 -128.4,0c-42.8,0 -85.8,0 -128.6,0c-42.9,0 -85.5,0 -128.4,0c-42.8,0 -85.8,0 -128.6,0c-42.9,0 -85.5,0 -128.4,0c-42.8,0 -85.8,0 -107.3,0l-21.5,0l0,124z"/>
   <path id="svg_4" fill="#e34c67" d="m0,142l21.5,-8.8c21.5,-8.9 64.5,-26.5 107.3,-26.7c42.9,-0.2 85.5,17.2 128.4,20.7c42.8,3.5 85.8,-6.9 128.6,-7.9c42.9,-1 85.5,7.4 128.4,8.9c42.8,1.5 85.8,-3.9 128.6,-1.9c42.9,2 85.5,11.4 128.4,6.9c42.8,-4.5 85.8,-22.9 107.3,-32l21.5,-9.2l0,-92l-21.5,0c-21.5,0 -64.5,0 -107.3,0c-42.9,0 -85.5,0 -128.4,0c-42.8,0 -85.8,0 -128.6,0c-42.9,0 -85.5,0 -128.4,0c-42.8,0 -85.8,0 -128.6,0c-42.9,0 -85.5,0 -128.4,0c-42.8,0 -85.8,0 -107.3,0l-21.5,0l0,142z"/>
   <path id="svg_5" fill="#d53867" d="m0,88l21.5,1.2c21.5,1.1 64.5,3.5 107.3,4.5c42.9,1 85.5,0.6 128.4,-5.4c42.8,-6 85.8,-17.6 128.6,-15c42.9,2.7 85.5,19.7 128.4,20.2c42.8,0.5 85.8,-15.5 128.6,-19.8c42.9,-4.4 85.5,3 128.4,9c42.8,6 85.8,10.6 107.3,13l21.5,2.3l0,-98l-21.5,0c-21.5,0 -64.5,0 -107.3,0c-42.9,0 -85.5,0 -128.4,0c-42.8,0 -85.8,0 -128.6,0c-42.9,0 -85.5,0 -128.4,0c-42.8,0 -85.8,0 -128.6,0c-42.9,0 -85.5,0 -128.4,0c-42.8,0 -85.8,0 -107.3,0l-21.5,0l0,88z"/>
   <path id="svg_6" fill="#c62368" d="m0,32l21.5,3.2c21.5,3.1 64.5,9.5 107.3,10.3c42.9,0.8 85.5,-3.8 128.4,-4c42.8,-0.2 85.8,4.2 128.6,8.5c42.9,4.3 85.5,8.7 128.4,9.5c42.8,0.8 85.8,-1.8 128.6,-2c42.9,-0.2 85.5,2.2 128.4,-0.8c42.8,-3 85.8,-11.4 107.3,-15.5l21.5,-4.2l0,-37l-21.5,0c-21.5,0 -64.5,0 -107.3,0c-42.9,0 -85.5,0 -128.4,0c-42.8,0 -85.8,0 -128.6,0c-42.9,0 -85.5,0 -128.4,0c-42.8,0 -85.8,0 -128.6,0c-42.9,0 -85.5,0 -128.4,0c-42.8,0 -85.8,0 -107.3,0l-21.5,0l0,32z"/>
  </g>
 </g>

</svg>