<svg id="visual" viewBox="0 0 900 600" width="900" height="600" xmlns="http://www.w3.org/2000/svg" xmlns:xlink="http://www.w3.org/1999/xlink" version="1.1">
<rect x="0" y="0" width="900" height="600" fill="#2B2B2B"></rect>
<path d="M0 49L82 49L82 121L164 121L164 67L245 67L245 61L327 61L327 49L409 49L409 103L491 103L491 103L573 103L573 127L655 127L655 49L736 49L736 91L818 91L818 115L900 115L900 79L900 0L900 0L818 0L818 0L736 0L736 0L655 0L655 0L573 0L573 0L491 0L491 0L409 0L409 0L327 0L327 0L245 0L245 0L164 0L164 0L82 0L82 0L0 0Z" fill="#2b2b2b"></path>
<path d="M0 103L82 103L82 199L164 199L164 139L245 139L245 121L327 121L327 139L409 139L409 193L491 193L491 181L573 181L573 169L655 169L655 91L736 91L736 127L818 127L818 205L900 205L900 151L900 77L900 113L818 113L818 89L736 89L736 47L655 47L655 125L573 125L573 101L491 101L491 101L409 101L409 47L327 47L327 59L245 59L245 65L164 65L164 119L82 119L82 47L0 47Z" fill="#4c2f37"></path>
<path d="M0 265L82 265L82 337L164 337L164 301L245 301L245 289L327 289L327 259L409 259L409 337L491 337L491 301L573 301L573 301L655 301L655 157L736 157L736 241L818 241L818 313L900 313L900 271L900 149L900 203L818 203L818 125L736 125L736 89L655 89L655 167L573 167L573 179L491 179L491 191L409 191L409 137L327 137L327 119L245 119L245 137L164 137L164 197L82 197L82 101L0 101Z" fill="#6d3044"></path>
<path d="M0 403L82 403L82 421L164 421L164 433L245 433L245 505L327 505L327 433L409 433L409 409L491 409L491 523L573 523L573 445L655 445L655 307L736 307L736 367L818 367L818 403L900 403L900 409L900 269L900 311L818 311L818 239L736 239L736 155L655 155L655 299L573 299L573 299L491 299L491 335L409 335L409 257L327 257L327 287L245 287L245 299L164 299L164 335L82 335L82 263L0 263Z" fill="#8e2d51"></path>
<path d="M0 601L82 601L82 601L164 601L164 601L245 601L245 601L327 601L327 601L409 601L409 601L491 601L491 601L573 601L573 601L655 601L655 601L736 601L736 601L818 601L818 601L900 601L900 601L900 407L900 401L818 401L818 365L736 365L736 305L655 305L655 443L573 443L573 521L491 521L491 407L409 407L409 431L327 431L327 503L245 503L245 431L164 431L164 419L82 419L82 401L0 401Z" fill="#b0235f"></path>
</svg>