<svg id="visual" width="900" height="300" xmlns="http://www.w3.org/2000/svg" xmlns:xlink="http://www.w3.org/1999/xlink" version="1.1">
<rect x="0" y="0" width="900" height="300" fill="#2b2b2b"></rect>
<path d="M0 230L82 221L164 246L245 217L327 238L409 232L491 238L573 257L655 258L736 210L818 258L900 247L900 0L818 0L736 0L655 0L573 0L491 0L409 0L327 0L245 0L164 0L82 0L0 0Z" fill="#c62368"></path>
<path d="M0 225L82 244L164 247L245 211L327 223L409 235L491 246L573 202L655 180L736 184L818 237L900 190L900 0L818 0L736 0L655 0L573 0L491 0L409 0L327 0L245 0L164 0L82 0L0 0Z" fill="#d14371"></path>
<path d="M0 222L82 188L164 167L245 191L327 163L409 179L491 206L573 211L655 178L736 218L818 184L900 178L900 0L818 0L736 0L655 0L573 0L491 0L409 0L327 0L245 0L164 0L82 0L0 0Z" fill="#db5d7b"></path>
<path d="M0 160L82 151L164 150L245 168L327 152L409 137L491 153L573 156L655 172L736 150L818 167L900 137L900 0L818 0L736 0L655 0L573 0L491 0L409 0L327 0L245 0L164 0L82 0L0 0Z" fill="#e47487"></path>
<path d="M0 109L82 146L164 137L245 133L327 143L409 145L491 150L573 137L655 122L736 140L818 136L900 123L900 0L818 0L736 0L655 0L573 0L491 0L409 0L327 0L245 0L164 0L82 0L0 0Z" fill="#ec8a94"></path>
<path d="M0 100L82 112L164 79L245 120L327 100L409 82L491 101L573 80L655 89L736 97L818 122L900 116L900 0L818 0L736 0L655 0L573 0L491 0L409 0L327 0L245 0L164 0L82 0L0 0Z" fill="#f3a0a3"></path>
<path d="M0 84L82 60L164 79L245 78L327 72L409 62L491 61L573 82L655 68L736 86L818 59L900 76L900 0L818 0L736 0L655 0L573 0L491 0L409 0L327 0L245 0L164 0L82 0L0 0Z" fill="#f9b5b4"></path>
<path d="M0 27L82 29L164 44L245 49L327 38L409 55L491 26L573 41L655 37L736 34L818 26L900 53L900 0L818 0L736 0L655 0L573 0L491 0L409 0L327 0L245 0L164 0L82 0L0 0Z" fill="#ffcac6"></path>
</svg>