<svg id="visual" viewBox="0 0 900 600" width="900" height="600" xmlns="http://www.w3.org/2000/svg" xmlns:xlink="http://www.w3.org/1999/xlink" version="1.1"><rect x="0" y="0" width="900" height="600" fill="#001220"></rect><path d="M0 239L21.5 232.5C43 226 86 213 128.8 208.8C171.7 204.7 214.3 209.3 257.2 202C300 194.7 343 175.3 385.8 173.5C428.7 171.7 471.3 187.3 514.2 196.5C557 205.7 600 208.3 642.8 202.3C685.7 196.3 728.3 181.7 771.2 186C814 190.3 857 213.7 878.5 225.3L900 237L900 0L878.5 0C857 0 814 0 771.2 0C728.3 0 685.7 0 642.8 0C600 0 557 0 514.2 0C471.3 0 428.7 0 385.8 0C343 0 300 0 257.2 0C214.3 0 171.7 0 128.8 0C86 0 43 0 21.5 0L0 0Z" fill="#fa7268"></path><path d="M0 124L21.5 124C43 124 86 124 128.8 126.7C171.7 129.3 214.3 134.7 257.2 134.5C300 134.3 343 128.7 385.8 125.5C428.7 122.3 471.3 121.7 514.2 130C557 138.3 600 155.7 642.8 156.8C685.7 158 728.3 143 771.2 137.3C814 131.7 857 135.3 878.5 137.2L900 139L900 0L878.5 0C857 0 814 0 771.2 0C728.3 0 685.7 0 642.8 0C600 0 557 0 514.2 0C471.3 0 428.7 0 385.8 0C343 0 300 0 257.2 0C214.3 0 171.7 0 128.8 0C86 0 43 0 21.5 0L0 0Z" fill="#ef5f67"></path><path d="M0 142L21.5 133.2C43 124.3 86 106.7 128.8 106.5C171.7 106.3 214.3 123.7 257.2 127.2C300 130.7 343 120.3 385.8 119.3C428.7 118.3 471.3 126.7 514.2 128.2C557 129.7 600 124.3 642.8 126.3C685.7 128.3 728.3 137.7 771.2 133.2C814 128.7 857 110.3 878.5 101.2L900 92L900 0L878.5 0C857 0 814 0 771.2 0C728.3 0 685.7 0 642.8 0C600 0 557 0 514.2 0C471.3 0 428.7 0 385.8 0C343 0 300 0 257.2 0C214.3 0 171.7 0 128.8 0C86 0 43 0 21.5 0L0 0Z" fill="#e34c67"></path><path d="M0 88L21.5 89.2C43 90.3 86 92.7 128.8 93.7C171.7 94.7 214.3 94.3 257.2 88.3C300 82.3 343 70.7 385.8 73.3C428.7 76 471.3 93 514.2 93.5C557 94 600 78 642.8 73.7C685.7 69.3 728.3 76.7 771.2 82.7C814 88.7 857 93.3 878.5 95.7L900 98L900 0L878.5 0C857 0 814 0 771.2 0C728.3 0 685.7 0 642.8 0C600 0 557 0 514.2 0C471.3 0 428.7 0 385.8 0C343 0 300 0 257.2 0C214.3 0 171.7 0 128.8 0C86 0 43 0 21.5 0L0 0Z" fill="#d53867"></path><path d="M0 32L21.5 35.2C43 38.3 86 44.7 128.8 45.5C171.7 46.3 214.3 41.7 257.2 41.5C300 41.3 343 45.7 385.8 50C428.7 54.3 471.3 58.7 514.2 59.5C557 60.3 600 57.7 642.8 57.5C685.7 57.3 728.3 59.7 771.2 56.7C814 53.7 857 45.3 878.5 41.2L900 37L900 0L878.5 0C857 0 814 0 771.2 0C728.3 0 685.7 0 642.8 0C600 0 557 0 514.2 0C471.3 0 428.7 0 385.8 0C343 0 300 0 257.2 0C214.3 0 171.7 0 128.8 0C86 0 43 0 21.5 0L0 0Z" fill="#c62368"></path></svg>